<svg width="187" height="58" viewBox="0 0 187 58" fill="none" xmlns="http://www.w3.org/2000/svg">
<path d="M38.5149 39.6644C39.3075 40.7439 39.0676 42.2553 37.975 43.0385C35.3528 44.9225 32.3707 45.9174 29.35 45.9174C26.3293 45.9174 23.3471 44.9225 20.7249 43.0385C19.6323 42.2553 19.3881 40.7439 20.1851 39.6644C20.982 38.5891 22.5074 38.3477 23.5999 39.131C27.2119 41.7261 31.4837 41.7261 35.0957 39.131C36.1883 38.3477 37.7179 38.5891 38.5106 39.6644H38.5149ZM44.025 26.5826V21.7479C44.025 20.4143 42.9281 19.3305 41.5784 19.3305C40.2287 19.3305 39.1319 20.4143 39.1319 21.7479V26.5826C39.1319 27.9162 40.2287 29 41.5784 29C42.9281 29 44.025 27.9162 44.025 26.5826ZM17.1215 19.3347C15.7719 19.3347 14.675 20.4185 14.675 21.7521V26.5869C14.675 27.9204 15.7719 29.0042 17.1215 29.0042C18.4712 29.0042 19.5681 27.9204 19.5681 26.5869V21.7521C19.5681 20.4185 18.4712 19.3347 17.1215 19.3347ZM26.9034 36.2479C29.6028 36.2479 31.7965 34.0803 31.7965 31.4131V21.7479C31.7965 20.4143 30.6996 19.3305 29.35 19.3305C28.0003 19.3305 26.9034 20.4143 26.9034 21.7479V31.4131C25.5538 31.4131 24.4569 32.4969 24.4569 33.8305C24.4569 35.1641 25.5538 36.2479 26.9034 36.2479ZM51.3646 0H44.0292C42.6796 0 41.5827 1.0838 41.5827 2.41737C41.5827 3.75095 42.6796 4.83474 44.0292 4.83474H51.3646C52.7143 4.83474 53.8111 5.91854 53.8111 7.25212V14.5C53.8111 15.8336 54.908 16.9174 56.2577 16.9174C57.6073 16.9174 58.7042 15.8336 58.7042 14.5V7.25212C58.7042 3.25562 55.4136 0.00423358 51.3689 0.00423358L51.3646 0ZM2.44654 16.9174C3.79621 16.9174 4.89309 15.8336 4.89309 14.5V7.25212C4.89309 5.91854 5.98996 4.83474 7.33963 4.83474H14.675C16.0247 4.83474 17.1215 3.75095 17.1215 2.41737C17.1215 1.0838 16.0247 0 14.675 0H7.33963C3.29062 0 0 3.25139 0 7.24788V14.4958C0 15.8293 1.09687 16.9131 2.44654 16.9131V16.9174ZM56.2534 41.0826C54.9037 41.0826 53.8068 42.1664 53.8068 43.5V50.7479C53.8068 52.0815 52.71 53.1653 51.3603 53.1653H44.025C42.6753 53.1653 41.5784 54.249 41.5784 55.5826C41.5784 56.9162 42.6753 58 44.025 58H51.3603C55.405 58 58.6957 54.7486 58.6957 50.7521V43.5042C58.6957 42.1707 57.5988 41.0869 56.2491 41.0869L56.2534 41.0826ZM14.675 53.1653H7.33963C5.98996 53.1653 4.89309 52.0815 4.89309 50.7479V43.5C4.89309 42.1664 3.79621 41.0826 2.44654 41.0826C1.09687 41.0826 0 42.1664 0 43.5V50.7479C0 54.7444 3.29062 57.9958 7.33535 57.9958H14.6707C16.0204 57.9958 17.1172 56.912 17.1172 55.5784C17.1172 54.2448 16.0204 53.161 14.6707 53.161L14.675 53.1653ZM87.3301 14.6947C86.7731 14.5381 86.2075 14.4577 85.6248 14.4577C82.9811 14.4577 80.9973 15.0969 79.6777 16.3755C78.3537 17.654 77.6939 19.2204 77.6939 21.0747V22.8782H75.5515C74.9174 22.8782 74.3904 23.0815 73.9662 23.4837C73.542 23.8901 73.3321 24.4023 73.3321 25.0289C73.3321 25.6555 73.542 26.172 73.9662 26.5784C74.3904 26.9848 74.9174 27.1838 75.5515 27.1838H77.6939V41.053C77.6939 41.7304 77.9167 42.3019 78.3666 42.7591C78.8164 43.2164 79.382 43.445 80.0719 43.445C80.7617 43.445 81.3273 43.2164 81.7772 42.7591C82.227 42.3019 82.4498 41.7346 82.4498 41.053V27.1838H86.0575C86.6917 27.1838 87.2187 26.9806 87.6429 26.5784C88.067 26.172 88.277 25.6597 88.277 25.0289C88.277 24.3981 88.067 23.8858 87.6429 23.4837C87.2187 23.0772 86.6917 22.8782 86.0575 22.8782H82.4498V21.0366C82.4498 20.7488 82.5141 20.4185 82.6469 20.0375C82.7798 19.6607 83.024 19.3263 83.3796 19.0384C83.7352 18.7505 84.2451 18.6066 84.905 18.6066C85.3549 18.6066 85.8176 18.6658 86.2932 18.7844C86.7688 18.9029 87.1244 18.9622 87.3643 18.9622C87.8657 18.9622 88.3113 18.7717 88.6926 18.3949C89.0739 18.0181 89.2667 17.5016 89.2667 16.8496C89.2667 16.2739 89.0825 15.8124 88.7097 15.4568C88.3413 15.1054 87.8785 14.8514 87.3215 14.6947H87.3301ZM111.119 22.7639C111.568 23.2085 111.791 23.7842 111.791 24.487V41.0572C111.791 41.7346 111.568 42.3061 111.119 42.7634C110.669 43.2206 110.099 43.4492 109.413 43.4492C108.728 43.4492 108.158 43.2206 107.708 42.7634C107.267 42.3146 107.048 41.76 107.035 41.0996C106.71 41.4552 106.311 41.8066 105.844 42.158C105.21 42.6279 104.464 43.0258 103.603 43.3518C102.742 43.6778 101.812 43.8429 100.81 43.8429C98.9844 43.8429 97.3348 43.3815 95.8523 42.4543C94.3698 41.5272 93.2001 40.2486 92.3431 38.6145C91.4819 36.9845 91.0535 35.1091 91.0535 32.9923C91.0535 30.8755 91.4819 28.9661 92.3431 27.332C93.2001 25.702 94.3569 24.4193 95.8137 23.4921C97.2662 22.565 98.8815 22.0993 100.651 22.0993C101.787 22.0993 102.832 22.2686 103.783 22.6073C104.734 22.946 105.561 23.3778 106.26 23.8985C106.547 24.1145 106.8 24.3261 107.031 24.542V24.4828C107.031 23.8054 107.254 23.2381 107.704 22.7809C108.154 22.3236 108.719 22.095 109.409 22.095C110.099 22.095 110.664 22.3152 111.114 22.7597L111.119 22.7639ZM107.232 32.988C107.232 31.7349 106.988 30.613 106.5 29.6181C106.011 28.6274 105.33 27.8442 104.456 27.2685C103.582 26.6927 102.566 26.4048 101.405 26.4048C100.244 26.4048 99.2629 26.6927 98.3931 27.2685C97.519 27.8442 96.842 28.6274 96.3493 29.6181C95.8608 30.613 95.6166 31.7349 95.6166 32.988C95.6166 34.2412 95.8608 35.325 96.3493 36.3199C96.8377 37.3147 97.519 38.098 98.3931 38.6695C99.2672 39.2453 100.27 39.5331 101.405 39.5331C102.541 39.5331 103.586 39.2453 104.456 38.6695C105.33 38.0937 106.007 37.3105 106.5 36.3199C106.988 35.3292 107.232 34.22 107.232 32.988ZM131.972 38.0429C131.389 38.0429 130.952 38.1615 130.665 38.3943C130.374 38.6314 130.044 38.8515 129.675 39.059C129.358 39.2156 128.96 39.3342 128.484 39.4104C128.009 39.4866 127.439 39.5289 126.779 39.5289C125.588 39.5289 124.538 39.241 123.625 38.6653C122.713 38.0895 122.002 37.3147 121.483 36.3326C120.965 35.3504 120.712 34.2369 120.712 32.9838C120.712 31.7307 120.965 30.5749 121.466 29.5969C121.967 28.619 122.687 27.84 123.625 27.2642C124.564 26.6885 125.708 26.4006 127.053 26.4006C127.319 26.4006 127.722 26.4472 128.262 26.5361C128.801 26.6292 129.208 26.752 129.47 26.9086C129.761 27.0653 130.01 27.2346 130.224 27.4166C130.434 27.5987 130.678 27.7511 130.957 27.8654C131.235 27.9839 131.582 28.0432 132.006 28.0432C132.615 28.0432 133.077 27.8146 133.395 27.3574C133.712 26.9001 133.87 26.4091 133.87 25.8883C133.87 25.1051 133.557 24.432 132.94 23.8689C132.319 23.3058 131.445 22.8698 130.322 22.5565C129.2 22.2432 127.884 22.0866 126.376 22.0866C124.341 22.0866 122.537 22.5523 120.965 23.4794C119.392 24.4066 118.163 25.6851 117.28 27.3193C116.393 28.9534 115.952 30.8374 115.952 32.9796C115.952 35.1218 116.367 36.8575 117.203 38.5044C118.034 40.1512 119.217 41.451 120.75 42.4035C122.284 43.3561 124.093 43.8345 126.183 43.8345C127.585 43.8345 128.887 43.6693 130.087 43.3434C131.291 43.0174 132.259 42.5855 133 42.0521C133.742 41.5187 134.11 40.9218 134.11 40.2698C134.11 39.6178 133.926 39.114 133.553 38.6822C133.185 38.2504 132.653 38.0345 131.968 38.0345L131.972 38.0429ZM155.975 28.4835C156.515 29.7366 156.789 31.0702 156.789 32.48C156.763 33.1066 156.51 33.6146 156.035 34.0083C155.559 34.402 155.002 34.5968 154.368 34.5968H141.283C141.428 35.3165 141.668 35.9642 142.015 36.5358C142.611 37.5137 143.378 38.2588 144.316 38.7669C145.254 39.2749 146.253 39.5289 147.311 39.5289C148.288 39.5289 149.068 39.4485 149.651 39.2918C150.233 39.1352 150.7 38.9447 151.06 38.7245C151.416 38.5044 151.741 38.3139 152.033 38.1572C152.508 37.9201 152.958 37.8058 153.383 37.8058C153.965 37.8058 154.445 38.0006 154.831 38.3943C155.212 38.788 155.405 39.2453 155.405 39.766C155.405 40.473 155.036 41.1123 154.295 41.6838C153.61 42.2596 152.641 42.7591 151.403 43.1909C150.16 43.6228 148.879 43.8387 147.555 43.8387C145.31 43.8387 143.361 43.3772 141.707 42.4501C140.053 41.5229 138.785 40.2613 137.902 38.6695C137.015 37.0777 136.574 35.2742 136.574 33.2632C136.574 30.9136 137.054 28.9069 138.022 27.2515C138.986 25.592 140.25 24.3219 141.81 23.4328C143.369 22.5438 145.019 22.0993 146.767 22.0993C148.117 22.0993 149.389 22.3745 150.593 22.9206C151.797 23.4709 152.86 24.2203 153.785 25.1728C154.711 26.1254 155.443 27.2304 155.988 28.4835H155.975ZM141.565 29.779C141.471 30.0542 141.398 30.359 141.334 30.6807H151.716V30.4055C151.664 29.6477 151.39 28.9704 150.902 28.3692C150.413 27.768 149.805 27.2939 149.076 26.9382C148.348 26.5869 147.577 26.4091 146.758 26.4091C145.94 26.4091 145.224 26.5149 144.539 26.7223C143.853 26.9298 143.258 27.2854 142.757 27.7807C142.255 28.2761 141.857 28.945 141.565 29.779ZM163.927 22.4888C163.242 22.4888 162.672 22.7174 162.222 23.1746C161.772 23.6318 161.549 24.1991 161.549 24.8765V42.467C161.549 43.0428 161.515 43.5889 161.451 44.1139C161.386 44.6346 161.219 45.0876 160.954 45.4644C160.688 45.8412 160.238 46.1375 159.604 46.345C159.021 46.527 158.541 46.7895 158.156 47.1282C157.774 47.4669 157.581 47.9241 157.581 48.4999V48.9317C157.581 49.5328 157.787 50.0493 158.194 50.4769C158.606 50.9088 159.141 51.1247 159.801 51.1247C161.018 51.1247 162.115 50.8241 163.092 50.2229C164.068 49.6218 164.848 48.7793 165.431 47.6955C166.014 46.6117 166.305 45.3247 166.305 43.8387V24.8765C166.305 24.1991 166.082 23.6318 165.632 23.1746C165.182 22.7174 164.613 22.4888 163.927 22.4888ZM163.884 15.2832C163.036 15.2832 162.41 15.4187 161.999 15.6939C161.588 15.9691 161.386 16.4855 161.386 17.2434V17.9885C161.386 18.7209 161.571 19.2289 161.943 19.5168C162.312 19.8047 162.946 19.9486 163.846 19.9486C164.745 19.9486 165.392 19.8131 165.787 19.538C166.185 19.2628 166.382 18.7463 166.382 17.9885V17.2434C166.382 16.5109 166.198 16.0029 165.825 15.715C165.457 15.4272 164.805 15.2832 163.884 15.2832ZM186.366 34.7323C185.942 33.9872 185.389 33.3818 184.699 32.9118C184.014 32.4419 183.259 32.0651 182.441 31.7772C181.623 31.4893 180.817 31.2438 180.025 31.0321C179.258 30.8247 178.538 30.6088 177.865 30.3844C177.192 30.1642 176.657 29.8764 176.258 29.5207C175.86 29.1693 175.663 28.6909 175.663 28.0898C175.663 27.4378 175.834 26.9594 176.177 26.6588C176.52 26.3582 176.922 26.1635 177.385 26.0704C177.848 25.9772 178.276 25.9349 178.675 25.9349C179.652 25.9349 180.517 26.1042 181.271 26.4429C182.026 26.7816 182.625 27.2388 183.075 27.8146C183.418 28.1279 183.855 28.3057 184.382 28.3438C184.909 28.3819 185.372 28.2464 185.77 27.9331C186.327 27.4886 186.576 26.9933 186.524 26.4429C186.473 25.8926 186.302 25.4226 186.01 25.0331C185.453 24.3261 184.768 23.7588 183.949 23.3312C183.131 22.8994 182.27 22.5861 181.374 22.3914C180.474 22.1966 179.618 22.0993 178.799 22.0993C177.505 22.0993 176.267 22.3491 175.093 22.8444C173.915 23.3397 172.959 24.0467 172.218 24.9612C171.477 25.8756 171.108 26.9848 171.108 28.293C171.108 29.4445 171.331 30.3971 171.781 31.1507C172.231 31.9085 172.813 32.5139 173.525 32.9711C174.24 33.4283 175.024 33.8009 175.886 34.0888C176.743 34.3766 177.582 34.6391 178.405 34.872C179.198 35.0794 179.917 35.3038 180.564 35.5366C181.211 35.7737 181.734 36.0574 182.128 36.4003C182.527 36.739 182.724 37.1962 182.724 37.772C182.724 38.4493 182.544 38.9531 182.188 39.2791C181.833 39.6051 181.417 39.8168 180.937 39.9057C180.462 39.9988 180.025 40.0581 179.63 40.0835C178.362 40.0835 177.304 39.8761 176.46 39.4569C175.611 39.0378 174.806 38.4536 174.043 37.6958C173.593 37.2512 173.131 37.0099 172.655 36.9718C172.179 36.9337 171.729 37.0438 171.305 37.3063C170.645 37.7254 170.298 38.2207 170.273 38.7965C170.247 39.3723 170.367 39.8422 170.628 40.2063C171.661 41.5653 172.955 42.5093 174.514 43.047C176.074 43.5804 177.634 43.8514 179.193 43.8514C180.436 43.8514 181.653 43.6101 182.84 43.1274C184.026 42.6448 185.02 41.9336 185.813 40.9937C186.606 40.0539 187.004 38.9193 187.004 37.5857C187.004 36.4384 186.794 35.4901 186.37 34.745L186.366 34.7323Z" fill="#1D1D1F"/>
</svg>
